<svg xmlns="http://www.w3.org/2000/svg" viewBox="0 0 1220 1360" width="1220" height="1360">
<style>
svg { background: #0b1220; }
.title { font: 700 28px Helvetica, Arial, sans-serif; fill: #e6edf3; }
.label { font: 700 18px Helvetica, Arial, sans-serif; fill: #e6edf3; }
.small { font: 500 14px Helvetica, Arial, sans-serif; fill: #a8bbcf; }
.metric { font: 500 13px Helvetica, Arial, sans-serif; fill: #cbd5e1; }
.axis { stroke: #718096; stroke-width: 1.3; }
.panel { fill: #14213d; stroke: #355070; stroke-width: 1.4; rx: 18; }
</style>
<text x="40" y="46" class="title">Lyapunov sign points to a regime. Orbit density tells you how that regime is occupied.</text>
<text x="40" y="74" class="small">Same logistic forcing idea, but now with tail histograms and last-iterate traces. Near-zero cases spread into many bands before they look fully chaotic.</text>
<rect x="40" y="120" width="360" height="600" class="panel"/>
<text x="62" y="152" class="label">AB · stable</text>
<text x="62" y="174" class="small">a=2.900, b=3.100, λ=-1.4245, period-2 support</text>
<text x="64" y="202" class="small">tail histogram</text>
<line x1="64" y1="366" x2="364" y2="366" class="axis"/>
<line x1="64" y1="216" x2="64" y2="366" class="axis"/>
<rect x="65.00" y="366.00" width="10.50" height="0.00" fill="#3f88c5" rx="2"/>
<rect x="77.50" y="366.00" width="10.50" height="0.00" fill="#3f88c5" rx="2"/>
<rect x="90.00" y="366.00" width="10.50" height="0.00" fill="#3f88c5" rx="2"/>
<rect x="102.50" y="366.00" width="10.50" height="0.00" fill="#3f88c5" rx="2"/>
<rect x="115.00" y="366.00" width="10.50" height="0.00" fill="#3f88c5" rx="2"/>
<rect x="127.50" y="366.00" width="10.50" height="0.00" fill="#3f88c5" rx="2"/>
<rect x="140.00" y="366.00" width="10.50" height="0.00" fill="#3f88c5" rx="2"/>
<rect x="152.50" y="366.00" width="10.50" height="0.00" fill="#3f88c5" rx="2"/>
<rect x="165.00" y="366.00" width="10.50" height="0.00" fill="#3f88c5" rx="2"/>
<rect x="177.50" y="366.00" width="10.50" height="0.00" fill="#3f88c5" rx="2"/>
<rect x="190.00" y="366.00" width="10.50" height="0.00" fill="#3f88c5" rx="2"/>
<rect x="202.50" y="366.00" width="10.50" height="0.00" fill="#3f88c5" rx="2"/>
<rect x="215.00" y="216.00" width="10.50" height="150.00" fill="#3f88c5" rx="2"/>
<rect x="227.50" y="366.00" width="10.50" height="0.00" fill="#3f88c5" rx="2"/>
<rect x="240.00" y="366.00" width="10.50" height="0.00" fill="#3f88c5" rx="2"/>
<rect x="252.50" y="366.00" width="10.50" height="0.00" fill="#3f88c5" rx="2"/>
<rect x="265.00" y="366.00" width="10.50" height="0.00" fill="#3f88c5" rx="2"/>
<rect x="277.50" y="366.00" width="10.50" height="0.00" fill="#3f88c5" rx="2"/>
<rect x="290.00" y="216.00" width="10.50" height="150.00" fill="#3f88c5" rx="2"/>
<rect x="302.50" y="366.00" width="10.50" height="0.00" fill="#3f88c5" rx="2"/>
<rect x="315.00" y="366.00" width="10.50" height="0.00" fill="#3f88c5" rx="2"/>
<rect x="327.50" y="366.00" width="10.50" height="0.00" fill="#3f88c5" rx="2"/>
<rect x="340.00" y="366.00" width="10.50" height="0.00" fill="#3f88c5" rx="2"/>
<rect x="352.50" y="366.00" width="10.50" height="0.00" fill="#3f88c5" rx="2"/>
<text x="64" y="386" class="small">0</text>
<text x="364" y="386" class="small" text-anchor="end">1</text>
<text x="64" y="410" class="small">last 90 iterates</text>
<line x1="64" y1="544" x2="364" y2="544" class="axis"/>
<line x1="64" y1="424" x2="64" y2="544" class="axis"/>
<polyline fill="none" stroke="#3f88c5" stroke-width="2" points="64.00,483.30 67.37,451.01 70.74,483.30 74.11,451.01 77.48,483.30 80.85,451.01 84.22,483.30 87.60,451.01 90.97,483.30 94.34,451.01 97.71,483.30 101.08,451.01 104.45,483.30 107.82,451.01 111.19,483.30 114.56,451.01 117.93,483.30 121.30,451.01 124.67,483.30 128.04,451.01 131.42,483.30 134.79,451.01 138.16,483.30 141.53,451.01 144.90,483.30 148.27,451.01 151.64,483.30 155.01,451.01 158.38,483.30 161.75,451.01 165.12,483.30 168.49,451.01 171.87,483.30 175.24,451.01 178.61,483.30 181.98,451.01 185.35,483.30 188.72,451.01 192.09,483.30 195.46,451.01 198.83,483.30 202.20,451.01 205.57,483.30 208.94,451.01 212.31,483.30 215.69,451.01 219.06,483.30 222.43,451.01 225.80,483.30 229.17,451.01 232.54,483.30 235.91,451.01 239.28,483.30 242.65,451.01 246.02,483.30 249.39,451.01 252.76,483.30 256.13,451.01 259.51,483.30 262.88,451.01 266.25,483.30 269.62,451.01 272.99,483.30 276.36,451.01 279.73,483.30 283.10,451.01 286.47,483.30 289.84,451.01 293.21,483.30 296.58,451.01 299.96,483.30 303.33,451.01 306.70,483.30 310.07,451.01 313.44,483.30 316.81,451.01 320.18,483.30 323.55,451.01 326.92,483.30 330.29,451.01 333.66,483.30 337.03,451.01 340.40,483.30 343.78,451.01 347.15,483.30 350.52,451.01 353.89,483.30 357.26,451.01 360.63,483.30 364.00,451.01"/>
<text x="64" y="564" class="small">older</text>
<text x="364" y="564" class="small" text-anchor="end">newer</text>
<text x="62" y="602" class="metric">class: stable</text>
<text x="62" y="624" class="metric">occupied bins: 2/24</text>
<text x="62" y="646" class="metric">mean x: 0.640</text>
<text x="62" y="668" class="metric">x range: 0.506 .. 0.775</text>
<text x="62" y="690" class="metric">peak bin: 50.0%</text>
<rect x="430" y="120" width="360" height="600" class="panel"/>
<text x="452" y="152" class="label">AB · near-zero</text>
<text x="452" y="174" class="small">a=2.900, b=3.567, λ=-0.0063, thin-band frontier</text>
<text x="454" y="202" class="small">tail histogram</text>
<line x1="454" y1="366" x2="754" y2="366" class="axis"/>
<line x1="454" y1="216" x2="454" y2="366" class="axis"/>
<rect x="455.00" y="366.00" width="10.50" height="0.00" fill="#f2c14e" rx="2"/>
<rect x="467.50" y="366.00" width="10.50" height="0.00" fill="#f2c14e" rx="2"/>
<rect x="480.00" y="366.00" width="10.50" height="0.00" fill="#f2c14e" rx="2"/>
<rect x="492.50" y="366.00" width="10.50" height="0.00" fill="#f2c14e" rx="2"/>
<rect x="505.00" y="366.00" width="10.50" height="0.00" fill="#f2c14e" rx="2"/>
<rect x="517.50" y="366.00" width="10.50" height="0.00" fill="#f2c14e" rx="2"/>
<rect x="530.00" y="328.50" width="10.50" height="37.50" fill="#f2c14e" rx="2"/>
<rect x="542.50" y="347.36" width="10.50" height="18.64" fill="#f2c14e" rx="2"/>
<rect x="555.00" y="347.14" width="10.50" height="18.86" fill="#f2c14e" rx="2"/>
<rect x="567.50" y="366.00" width="10.50" height="0.00" fill="#f2c14e" rx="2"/>
<rect x="580.00" y="366.00" width="10.50" height="0.00" fill="#f2c14e" rx="2"/>
<rect x="592.50" y="347.14" width="10.50" height="18.86" fill="#f2c14e" rx="2"/>
<rect x="605.00" y="347.36" width="10.50" height="18.64" fill="#f2c14e" rx="2"/>
<rect x="617.50" y="347.14" width="10.50" height="18.86" fill="#f2c14e" rx="2"/>
<rect x="630.00" y="347.36" width="10.50" height="18.64" fill="#f2c14e" rx="2"/>
<rect x="642.50" y="366.00" width="10.50" height="0.00" fill="#f2c14e" rx="2"/>
<rect x="655.00" y="366.00" width="10.50" height="0.00" fill="#f2c14e" rx="2"/>
<rect x="667.50" y="328.50" width="10.50" height="37.50" fill="#f2c14e" rx="2"/>
<rect x="680.00" y="347.36" width="10.50" height="18.64" fill="#f2c14e" rx="2"/>
<rect x="692.50" y="347.14" width="10.50" height="18.86" fill="#f2c14e" rx="2"/>
<rect x="705.00" y="328.50" width="10.50" height="37.50" fill="#f2c14e" rx="2"/>
<rect x="717.50" y="328.50" width="10.50" height="37.50" fill="#f2c14e" rx="2"/>
<rect x="730.00" y="366.00" width="10.50" height="0.00" fill="#f2c14e" rx="2"/>
<rect x="742.50" y="366.00" width="10.50" height="0.00" fill="#f2c14e" rx="2"/>
<text x="454" y="386" class="small">0</text>
<text x="754" y="386" class="small" text-anchor="end">1</text>
<text x="454" y="410" class="small">last 90 iterates</text>
<line x1="454" y1="544" x2="754" y2="544" class="axis"/>
<line x1="454" y1="424" x2="454" y2="544" class="axis"/>
<polyline fill="none" stroke="#f2c14e" stroke-width="2" points="454.00,473.81 457.37,440.08 460.74,503.62 464.11,448.43 467.48,487.57 470.85,437.37 474.22,509.55 477.60,456.39 480.97,475.42 484.34,439.18 487.71,505.55 491.08,450.79 494.45,483.65 497.82,436.99 501.19,510.40 504.56,457.70 507.93,473.71 511.30,440.14 514.67,503.49 518.04,448.29 521.42,487.82 524.79,437.42 528.16,509.42 531.53,456.20 534.90,475.67 538.27,439.05 541.64,505.82 545.01,451.15 548.38,483.08 551.75,437.02 555.12,510.35 558.49,457.63 561.87,473.81 565.24,440.08 568.61,503.62 571.98,448.43 575.35,487.57 578.72,437.37 582.09,509.55 585.46,456.39 588.83,475.42 592.20,439.18 595.57,505.55 598.94,450.79 602.31,483.65 605.69,436.99 609.06,510.40 612.43,457.70 615.80,473.71 619.17,440.14 622.54,503.49 625.91,448.29 629.28,487.82 632.65,437.42 636.02,509.42 639.39,456.20 642.76,475.67 646.13,439.05 649.51,505.82 652.88,451.15 656.25,483.08 659.62,437.02 662.99,510.35 666.36,457.63 669.73,473.81 673.10,440.08 676.47,503.62 679.84,448.43 683.21,487.57 686.58,437.37 689.96,509.55 693.33,456.39 696.70,475.42 700.07,439.18 703.44,505.55 706.81,450.79 710.18,483.65 713.55,436.99 716.92,510.40 720.29,457.70 723.66,473.71 727.03,440.14 730.40,503.49 733.78,448.29 737.15,487.82 740.52,437.42 743.89,509.42 747.26,456.20 750.63,475.67 754.00,439.05"/>
<text x="454" y="564" class="small">older</text>
<text x="754" y="564" class="small" text-anchor="end">newer</text>
<text x="452" y="602" class="metric">class: stable</text>
<text x="452" y="624" class="metric">occupied bins: 12/24</text>
<text x="452" y="646" class="metric">mean x: 0.619</text>
<text x="452" y="668" class="metric">x range: 0.280 .. 0.892</text>
<text x="452" y="690" class="metric">peak bin: 12.5%</text>
<rect x="820" y="120" width="360" height="600" class="panel"/>
<text x="842" y="152" class="label">AB · chaotic</text>
<text x="842" y="174" class="small">a=3.900, b=3.950, λ=+0.5386, broad support</text>
<text x="844" y="202" class="small">tail histogram</text>
<line x1="844" y1="366" x2="1144" y2="366" class="axis"/>
<line x1="844" y1="216" x2="844" y2="366" class="axis"/>
<rect x="845.00" y="366.00" width="10.50" height="0.00" fill="#d7263d" rx="2"/>
<rect x="857.50" y="354.86" width="10.50" height="11.14" fill="#d7263d" rx="2"/>
<rect x="870.00" y="351.86" width="10.50" height="14.14" fill="#d7263d" rx="2"/>
<rect x="882.50" y="352.93" width="10.50" height="13.07" fill="#d7263d" rx="2"/>
<rect x="895.00" y="354.64" width="10.50" height="11.36" fill="#d7263d" rx="2"/>
<rect x="907.50" y="354.21" width="10.50" height="11.79" fill="#d7263d" rx="2"/>
<rect x="920.00" y="356.36" width="10.50" height="9.64" fill="#d7263d" rx="2"/>
<rect x="932.50" y="357.00" width="10.50" height="9.00" fill="#d7263d" rx="2"/>
<rect x="945.00" y="351.64" width="10.50" height="14.36" fill="#d7263d" rx="2"/>
<rect x="957.50" y="355.50" width="10.50" height="10.50" fill="#d7263d" rx="2"/>
<rect x="970.00" y="354.86" width="10.50" height="11.14" fill="#d7263d" rx="2"/>
<rect x="982.50" y="355.07" width="10.50" height="10.93" fill="#d7263d" rx="2"/>
<rect x="995.00" y="358.71" width="10.50" height="7.29" fill="#d7263d" rx="2"/>
<rect x="1007.50" y="358.07" width="10.50" height="7.93" fill="#d7263d" rx="2"/>
<rect x="1020.00" y="355.50" width="10.50" height="10.50" fill="#d7263d" rx="2"/>
<rect x="1032.50" y="354.64" width="10.50" height="11.36" fill="#d7263d" rx="2"/>
<rect x="1045.00" y="356.14" width="10.50" height="9.86" fill="#d7263d" rx="2"/>
<rect x="1057.50" y="358.50" width="10.50" height="7.50" fill="#d7263d" rx="2"/>
<rect x="1070.00" y="355.93" width="10.50" height="10.07" fill="#d7263d" rx="2"/>
<rect x="1082.50" y="354.43" width="10.50" height="11.57" fill="#d7263d" rx="2"/>
<rect x="1095.00" y="351.00" width="10.50" height="15.00" fill="#d7263d" rx="2"/>
<rect x="1107.50" y="346.29" width="10.50" height="19.71" fill="#d7263d" rx="2"/>
<rect x="1120.00" y="340.29" width="10.50" height="25.71" fill="#d7263d" rx="2"/>
<rect x="1132.50" y="329.57" width="10.50" height="36.43" fill="#d7263d" rx="2"/>
<text x="844" y="386" class="small">0</text>
<text x="1144" y="386" class="small" text-anchor="end">1</text>
<text x="844" y="410" class="small">last 90 iterates</text>
<line x1="844" y1="544" x2="1144" y2="544" class="axis"/>
<line x1="844" y1="424" x2="844" y2="544" class="axis"/>
<polyline fill="none" stroke="#d7263d" stroke-width="2" points="844.00,461.24 847.37,442.55 850.74,482.84 854.11,425.54 857.48,538.05 860.85,521.68 864.22,473.14 867.60,429.38 870.97,523.95 874.34,478.05 877.71,428.15 881.08,528.17 884.45,490.39 887.82,426.85 891.19,533.16 894.56,505.06 897.93,441.42 901.30,485.19 904.67,427.05 908.04,532.27 911.42,502.73 914.79,437.05 918.16,498.63 921.53,432.55 924.90,513.05 928.27,453.27 931.64,457.69 935.01,448.29 938.38,468.44 941.75,433.47 945.12,509.98 948.49,447.71 951.87,469.79 955.24,432.14 958.61,514.39 961.98,455.91 965.35,452.65 968.72,457.85 972.09,449.22 975.46,465.31 978.83,438.36 982.20,494.08 985.57,430.30 988.94,520.42 992.31,470.10 995.69,431.86 999.06,515.37 1002.43,457.89 1005.80,449.15 1009.17,465.47 1012.54,438.16 1015.91,494.67 1019.28,430.70 1022.65,519.01 1026.02,466.84 1029.39,435.19 1032.76,504.43 1036.13,439.24 1039.51,492.11 1042.88,427.67 1046.25,530.14 1049.62,495.57 1052.99,431.35 1056.36,516.75 1059.73,461.85 1063.10,441.65 1066.47,485.29 1069.84,425.55 1073.21,538.02 1076.58,521.54 1079.96,472.80 1083.33,429.63 1086.70,523.07 1090.07,475.74 1093.44,429.22 1096.81,524.29 1100.18,479.75 1103.55,426.09 1106.92,535.98 1110.29,514.43 1113.66,457.10 1117.03,449.32 1120.40,466.10 1123.78,436.05 1127.15,501.73 1130.52,435.85 1133.89,502.36 1137.26,436.60 1140.63,500.03 1144.00,433.96"/>
<text x="844" y="564" class="small">older</text>
<text x="1144" y="564" class="small" text-anchor="end">newer</text>
<text x="842" y="602" class="metric">class: chaotic</text>
<text x="842" y="624" class="metric">occupied bins: 23/24</text>
<text x="842" y="646" class="metric">mean x: 0.584</text>
<text x="842" y="668" class="metric">x range: 0.048 .. 0.987</text>
<text x="842" y="690" class="metric">peak bin: 12.1%</text>
<rect x="40" y="700" width="360" height="600" class="panel"/>
<text x="62" y="732" class="label">AABAB · stable</text>
<text x="62" y="754" class="small">a=3.350, b=3.350, λ=-0.3246, period-2 support</text>
<text x="64" y="782" class="small">tail histogram</text>
<line x1="64" y1="946" x2="364" y2="946" class="axis"/>
<line x1="64" y1="796" x2="64" y2="946" class="axis"/>
<rect x="65.00" y="946.00" width="10.50" height="0.00" fill="#3f88c5" rx="2"/>
<rect x="77.50" y="946.00" width="10.50" height="0.00" fill="#3f88c5" rx="2"/>
<rect x="90.00" y="946.00" width="10.50" height="0.00" fill="#3f88c5" rx="2"/>
<rect x="102.50" y="946.00" width="10.50" height="0.00" fill="#3f88c5" rx="2"/>
<rect x="115.00" y="946.00" width="10.50" height="0.00" fill="#3f88c5" rx="2"/>
<rect x="127.50" y="946.00" width="10.50" height="0.00" fill="#3f88c5" rx="2"/>
<rect x="140.00" y="946.00" width="10.50" height="0.00" fill="#3f88c5" rx="2"/>
<rect x="152.50" y="946.00" width="10.50" height="0.00" fill="#3f88c5" rx="2"/>
<rect x="165.00" y="946.00" width="10.50" height="0.00" fill="#3f88c5" rx="2"/>
<rect x="177.50" y="946.00" width="10.50" height="0.00" fill="#3f88c5" rx="2"/>
<rect x="190.00" y="946.00" width="10.50" height="0.00" fill="#3f88c5" rx="2"/>
<rect x="202.50" y="796.00" width="10.50" height="150.00" fill="#3f88c5" rx="2"/>
<rect x="215.00" y="946.00" width="10.50" height="0.00" fill="#3f88c5" rx="2"/>
<rect x="227.50" y="946.00" width="10.50" height="0.00" fill="#3f88c5" rx="2"/>
<rect x="240.00" y="946.00" width="10.50" height="0.00" fill="#3f88c5" rx="2"/>
<rect x="252.50" y="946.00" width="10.50" height="0.00" fill="#3f88c5" rx="2"/>
<rect x="265.00" y="946.00" width="10.50" height="0.00" fill="#3f88c5" rx="2"/>
<rect x="277.50" y="946.00" width="10.50" height="0.00" fill="#3f88c5" rx="2"/>
<rect x="290.00" y="946.00" width="10.50" height="0.00" fill="#3f88c5" rx="2"/>
<rect x="302.50" y="946.00" width="10.50" height="0.00" fill="#3f88c5" rx="2"/>
<rect x="315.00" y="796.00" width="10.50" height="150.00" fill="#3f88c5" rx="2"/>
<rect x="327.50" y="946.00" width="10.50" height="0.00" fill="#3f88c5" rx="2"/>
<rect x="340.00" y="946.00" width="10.50" height="0.00" fill="#3f88c5" rx="2"/>
<rect x="352.50" y="946.00" width="10.50" height="0.00" fill="#3f88c5" rx="2"/>
<text x="64" y="966" class="small">0</text>
<text x="364" y="966" class="small" text-anchor="end">1</text>
<text x="64" y="990" class="small">last 90 iterates</text>
<line x1="64" y1="1124" x2="364" y2="1124" class="axis"/>
<line x1="64" y1="1004" x2="64" y2="1124" class="axis"/>
<polyline fill="none" stroke="#3f88c5" stroke-width="2" points="64.00,1023.99 67.37,1068.19 70.74,1023.99 74.11,1068.19 77.48,1023.99 80.85,1068.19 84.22,1023.99 87.60,1068.19 90.97,1023.99 94.34,1068.19 97.71,1023.99 101.08,1068.19 104.45,1023.99 107.82,1068.19 111.19,1023.99 114.56,1068.19 117.93,1023.99 121.30,1068.19 124.67,1023.99 128.04,1068.19 131.42,1023.99 134.79,1068.19 138.16,1023.99 141.53,1068.19 144.90,1023.99 148.27,1068.19 151.64,1023.99 155.01,1068.19 158.38,1023.99 161.75,1068.19 165.12,1023.99 168.49,1068.19 171.87,1023.99 175.24,1068.19 178.61,1023.99 181.98,1068.19 185.35,1023.99 188.72,1068.19 192.09,1023.99 195.46,1068.19 198.83,1023.99 202.20,1068.19 205.57,1023.99 208.94,1068.19 212.31,1023.99 215.69,1068.19 219.06,1023.99 222.43,1068.19 225.80,1023.99 229.17,1068.19 232.54,1023.99 235.91,1068.19 239.28,1023.99 242.65,1068.19 246.02,1023.99 249.39,1068.19 252.76,1023.99 256.13,1068.19 259.51,1023.99 262.88,1068.19 266.25,1023.99 269.62,1068.19 272.99,1023.99 276.36,1068.19 279.73,1023.99 283.10,1068.19 286.47,1023.99 289.84,1068.19 293.21,1023.99 296.58,1068.19 299.96,1023.99 303.33,1068.19 306.70,1023.99 310.07,1068.19 313.44,1023.99 316.81,1068.19 320.18,1023.99 323.55,1068.19 326.92,1023.99 330.29,1068.19 333.66,1023.99 337.03,1068.19 340.40,1023.99 343.78,1068.19 347.15,1023.99 350.52,1068.19 353.89,1023.99 357.26,1068.19 360.63,1023.99 364.00,1068.19"/>
<text x="64" y="1144" class="small">older</text>
<text x="364" y="1144" class="small" text-anchor="end">newer</text>
<text x="62" y="1182" class="metric">class: stable</text>
<text x="62" y="1204" class="metric">occupied bins: 2/24</text>
<text x="62" y="1226" class="metric">mean x: 0.649</text>
<text x="62" y="1248" class="metric">x range: 0.465 .. 0.833</text>
<text x="62" y="1270" class="metric">peak bin: 50.0%</text>
<rect x="430" y="700" width="360" height="600" class="panel"/>
<text x="452" y="732" class="label">AABAB · near-zero</text>
<text x="452" y="754" class="small">a=2.900, b=3.715, λ=-0.0026, multi-band frontier</text>
<text x="454" y="782" class="small">tail histogram</text>
<line x1="454" y1="946" x2="754" y2="946" class="axis"/>
<line x1="454" y1="796" x2="454" y2="946" class="axis"/>
<rect x="455.00" y="946.00" width="10.50" height="0.00" fill="#f2c14e" rx="2"/>
<rect x="467.50" y="946.00" width="10.50" height="0.00" fill="#f2c14e" rx="2"/>
<rect x="480.00" y="946.00" width="10.50" height="0.00" fill="#f2c14e" rx="2"/>
<rect x="492.50" y="946.00" width="10.50" height="0.00" fill="#f2c14e" rx="2"/>
<rect x="505.00" y="926.07" width="10.50" height="19.93" fill="#f2c14e" rx="2"/>
<rect x="517.50" y="926.07" width="10.50" height="19.93" fill="#f2c14e" rx="2"/>
<rect x="530.00" y="925.86" width="10.50" height="20.14" fill="#f2c14e" rx="2"/>
<rect x="542.50" y="946.00" width="10.50" height="0.00" fill="#f2c14e" rx="2"/>
<rect x="555.00" y="946.00" width="10.50" height="0.00" fill="#f2c14e" rx="2"/>
<rect x="567.50" y="946.00" width="10.50" height="0.00" fill="#f2c14e" rx="2"/>
<rect x="580.00" y="946.00" width="10.50" height="0.00" fill="#f2c14e" rx="2"/>
<rect x="592.50" y="926.07" width="10.50" height="19.93" fill="#f2c14e" rx="2"/>
<rect x="605.00" y="936.14" width="10.50" height="9.86" fill="#f2c14e" rx="2"/>
<rect x="617.50" y="906.14" width="10.50" height="39.86" fill="#f2c14e" rx="2"/>
<rect x="630.00" y="915.79" width="10.50" height="30.21" fill="#f2c14e" rx="2"/>
<rect x="642.50" y="946.00" width="10.50" height="0.00" fill="#f2c14e" rx="2"/>
<rect x="655.00" y="925.86" width="10.50" height="20.14" fill="#f2c14e" rx="2"/>
<rect x="667.50" y="906.14" width="10.50" height="39.86" fill="#f2c14e" rx="2"/>
<rect x="680.00" y="925.86" width="10.50" height="20.14" fill="#f2c14e" rx="2"/>
<rect x="692.50" y="946.00" width="10.50" height="0.00" fill="#f2c14e" rx="2"/>
<rect x="705.00" y="946.00" width="10.50" height="0.00" fill="#f2c14e" rx="2"/>
<rect x="717.50" y="925.86" width="10.50" height="20.14" fill="#f2c14e" rx="2"/>
<rect x="730.00" y="906.14" width="10.50" height="39.86" fill="#f2c14e" rx="2"/>
<rect x="742.50" y="946.00" width="10.50" height="0.00" fill="#f2c14e" rx="2"/>
<text x="454" y="966" class="small">0</text>
<text x="754" y="966" class="small" text-anchor="end">1</text>
<text x="454" y="990" class="small">last 90 iterates</text>
<line x1="454" y1="1124" x2="754" y2="1124" class="axis"/>
<line x1="454" y1="1004" x2="454" y2="1124" class="axis"/>
<polyline fill="none" stroke="#f2c14e" stroke-width="2" points="454.00,1060.26 457.37,1037.34 460.74,1034.56 464.11,1057.95 467.48,1013.68 470.85,1098.18 474.22,1065.24 477.60,1012.60 480.97,1100.85 484.34,1054.60 487.71,1039.14 491.08,1051.94 494.45,1017.05 497.82,1090.26 501.19,1033.90 504.56,1058.89 507.93,1037.63 511.30,1034.08 514.67,1058.64 518.04,1013.44 521.42,1098.78 524.79,1066.23 528.16,1012.70 531.53,1100.59 534.90,1053.99 538.27,1039.42 541.64,1051.60 545.01,1017.31 548.38,1089.68 551.75,1032.97 555.12,1060.26 558.49,1037.34 561.87,1034.56 565.24,1057.95 568.61,1013.68 571.98,1098.18 575.35,1065.24 578.72,1012.60 582.09,1100.85 585.46,1054.60 588.83,1039.14 592.20,1051.94 595.57,1017.05 598.94,1090.26 602.31,1033.90 605.69,1058.89 609.06,1037.63 612.43,1034.08 615.80,1058.64 619.17,1013.44 622.54,1098.78 625.91,1066.23 629.28,1012.70 632.65,1100.59 636.02,1053.99 639.39,1039.42 642.76,1051.60 646.13,1017.31 649.51,1089.68 652.88,1032.97 656.25,1060.26 659.62,1037.34 662.99,1034.56 666.36,1057.95 669.73,1013.68 673.10,1098.18 676.47,1065.24 679.84,1012.60 683.21,1100.85 686.58,1054.60 689.96,1039.14 693.33,1051.94 696.70,1017.05 700.07,1090.26 703.44,1033.90 706.81,1058.89 710.18,1037.63 713.55,1034.08 716.92,1058.64 720.29,1013.44 723.66,1098.78 727.03,1066.23 730.40,1012.70 733.78,1100.59 737.15,1053.99 740.52,1039.42 743.89,1051.60 747.26,1017.31 750.63,1089.69 754.00,1032.97"/>
<text x="454" y="1144" class="small">older</text>
<text x="754" y="1144" class="small" text-anchor="end">newer</text>
<text x="452" y="1182" class="metric">class: stable</text>
<text x="452" y="1204" class="metric">occupied bins: 12/24</text>
<text x="452" y="1226" class="metric">mean x: 0.607</text>
<text x="452" y="1248" class="metric">x range: 0.193 .. 0.928</text>
<text x="452" y="1270" class="metric">peak bin: 13.3%</text>
<rect x="820" y="700" width="360" height="600" class="panel"/>
<text x="842" y="732" class="label">AABAB · chaotic</text>
<text x="842" y="754" class="small">a=3.808, b=3.808, λ=+0.4345, broad support</text>
<text x="844" y="782" class="small">tail histogram</text>
<line x1="844" y1="946" x2="1144" y2="946" class="axis"/>
<line x1="844" y1="796" x2="844" y2="946" class="axis"/>
<rect x="845.00" y="946.00" width="10.50" height="0.00" fill="#d7263d" rx="2"/>
<rect x="857.50" y="946.00" width="10.50" height="0.00" fill="#d7263d" rx="2"/>
<rect x="870.00" y="946.00" width="10.50" height="0.00" fill="#d7263d" rx="2"/>
<rect x="882.50" y="946.00" width="10.50" height="0.00" fill="#d7263d" rx="2"/>
<rect x="895.00" y="924.36" width="10.50" height="21.64" fill="#d7263d" rx="2"/>
<rect x="907.50" y="929.93" width="10.50" height="16.07" fill="#d7263d" rx="2"/>
<rect x="920.00" y="935.07" width="10.50" height="10.93" fill="#d7263d" rx="2"/>
<rect x="932.50" y="938.71" width="10.50" height="7.29" fill="#d7263d" rx="2"/>
<rect x="945.00" y="933.57" width="10.50" height="12.43" fill="#d7263d" rx="2"/>
<rect x="957.50" y="937.64" width="10.50" height="8.36" fill="#d7263d" rx="2"/>
<rect x="970.00" y="937.00" width="10.50" height="9.00" fill="#d7263d" rx="2"/>
<rect x="982.50" y="938.07" width="10.50" height="7.93" fill="#d7263d" rx="2"/>
<rect x="995.00" y="940.21" width="10.50" height="5.79" fill="#d7263d" rx="2"/>
<rect x="1007.50" y="928.64" width="10.50" height="17.36" fill="#d7263d" rx="2"/>
<rect x="1020.00" y="928.43" width="10.50" height="17.57" fill="#d7263d" rx="2"/>
<rect x="1032.50" y="931.43" width="10.50" height="14.57" fill="#d7263d" rx="2"/>
<rect x="1045.00" y="931.86" width="10.50" height="14.14" fill="#d7263d" rx="2"/>
<rect x="1057.50" y="935.93" width="10.50" height="10.07" fill="#d7263d" rx="2"/>
<rect x="1070.00" y="932.71" width="10.50" height="13.29" fill="#d7263d" rx="2"/>
<rect x="1082.50" y="929.29" width="10.50" height="16.71" fill="#d7263d" rx="2"/>
<rect x="1095.00" y="925.64" width="10.50" height="20.36" fill="#d7263d" rx="2"/>
<rect x="1107.50" y="917.71" width="10.50" height="28.29" fill="#d7263d" rx="2"/>
<rect x="1120.00" y="897.79" width="10.50" height="48.21" fill="#d7263d" rx="2"/>
<rect x="1132.50" y="946.00" width="10.50" height="0.00" fill="#d7263d" rx="2"/>
<text x="844" y="966" class="small">0</text>
<text x="1144" y="966" class="small" text-anchor="end">1</text>
<text x="844" y="990" class="small">last 90 iterates</text>
<line x1="844" y1="1124" x2="1144" y2="1124" class="axis"/>
<line x1="844" y1="1004" x2="844" y2="1124" class="axis"/>
<polyline fill="none" stroke="#d7263d" stroke-width="2" points="844.00,1033.11 847.37,1040.05 850.74,1027.97 854.11,1050.96 857.48,1015.15 860.85,1085.48 864.22,1024.40 867.60,1059.52 870.97,1010.40 874.34,1100.94 877.71,1053.06 881.08,1013.56 884.45,1090.50 887.82,1032.05 891.19,1042.16 894.56,1024.89 897.93,1058.29 901.30,1010.79 904.67,1099.59 908.04,1049.96 911.42,1016.02 914.79,1082.82 918.16,1021.00 921.53,1068.43 924.90,1010.38 928.27,1100.98 931.64,1053.16 935.01,1013.49 938.38,1090.73 941.75,1032.44 945.12,1041.37 948.49,1026.01 951.87,1055.55 955.24,1012.02 958.61,1095.49 961.98,1041.23 965.35,1026.22 968.72,1055.07 972.09,1012.29 975.46,1094.60 978.83,1039.48 982.20,1028.84 985.57,1048.99 988.94,1016.91 992.31,1080.12 995.69,1018.00 999.06,1076.90 1002.43,1015.04 1005.80,1085.81 1009.17,1024.86 1012.54,1058.38 1015.91,1010.76 1019.28,1099.69 1022.65,1050.19 1026.02,1015.81 1029.39,1083.45 1032.76,1021.77 1036.13,1066.36 1039.51,1009.94 1042.88,1102.51 1046.25,1056.82 1049.62,1011.40 1052.99,1097.57 1056.36,1045.53 1059.73,1020.59 1063.10,1069.56 1066.47,1010.74 1069.84,1099.77 1073.21,1050.35 1076.58,1015.67 1079.96,1083.89 1083.33,1022.31 1086.70,1064.92 1090.07,1009.79 1093.44,1103.03 1096.81,1058.09 1100.18,1010.87 1103.55,1099.35 1106.92,1049.40 1110.29,1016.52 1113.66,1081.30 1117.03,1019.26 1120.40,1073.29 1123.78,1012.50 1127.15,1093.93 1130.52,1038.18 1133.89,1030.91 1137.26,1044.50 1140.63,1021.83 1144.00,1066.20"/>
<text x="844" y="1144" class="small">older</text>
<text x="1144" y="1144" class="small" text-anchor="end">newer</text>
<text x="842" y="1182" class="metric">class: chaotic</text>
<text x="842" y="1204" class="metric">occupied bins: 19/24</text>
<text x="842" y="1226" class="metric">mean x: 0.634</text>
<text x="842" y="1248" class="metric">x range: 0.174 .. 0.952</text>
<text x="842" y="1270" class="metric">peak bin: 16.1%</text>
<text x="40" y="1322" class="small">The point of the sidecar is not that λ becomes useless. It is that sign alone does not tell you whether the orbit collapses into two spikes, spreads across a few thin bands, or fills most of the interval.</text>
</svg>
